<svg width="164" height="70" viewBox="0 0 164 70" fill="none" xmlns="http://www.w3.org/2000/svg">
<path d="M92.3711 31.5234C92.3711 30.8594 92.1367 30.3516 91.668 30C91.1992 29.6406 90.3555 29.2656 89.1367 28.875C87.918 28.4766 86.9531 28.0859 86.2422 27.7031C84.3047 26.6562 83.3359 25.2461 83.3359 23.4727C83.3359 22.5508 83.5938 21.7305 84.1094 21.0117C84.6328 20.2852 85.3789 19.7188 86.3477 19.3125C87.3242 18.9062 88.418 18.7031 89.6289 18.7031C90.8477 18.7031 91.9336 18.9258 92.8867 19.3711C93.8398 19.8086 94.5781 20.4297 95.1016 21.2344C95.6328 22.0391 95.8984 22.9531 95.8984 23.9766H92.3828C92.3828 23.1953 92.1367 22.5898 91.6445 22.1602C91.1523 21.7227 90.4609 21.5039 89.5703 21.5039C88.7109 21.5039 88.043 21.6875 87.5664 22.0547C87.0898 22.4141 86.8516 22.8906 86.8516 23.4844C86.8516 24.0391 87.1289 24.5039 87.6836 24.8789C88.2461 25.2539 89.0703 25.6055 90.1562 25.9336C92.1562 26.5352 93.6133 27.2812 94.5273 28.1719C95.4414 29.0625 95.8984 30.1719 95.8984 31.5C95.8984 32.9766 95.3398 34.1367 94.2227 34.9805C93.1055 35.8164 91.6016 36.2344 89.7109 36.2344C88.3984 36.2344 87.2031 35.9961 86.125 35.5195C85.0469 35.0352 84.2227 34.375 83.6523 33.5391C83.0898 32.7031 82.8086 31.7344 82.8086 30.6328H86.3359C86.3359 32.5156 87.4609 33.457 89.7109 33.457C90.5469 33.457 91.1992 33.2891 91.668 32.9531C92.1367 32.6094 92.3711 32.1328 92.3711 31.5234ZM102.883 18.9375L107.266 31.3125L111.625 18.9375H116.242V36H112.715V31.3359L113.066 23.2852L108.461 36H106.047L101.453 23.2969L101.805 31.3359V36H98.2891V18.9375H102.883ZM129.156 32.4844H122.992L121.82 36H118.082L124.434 18.9375H127.691L134.078 36H130.34L129.156 32.4844ZM123.941 29.6367H128.207L126.062 23.25L123.941 29.6367ZM141.988 29.7539H139.188V36H135.672V18.9375H142.012C144.027 18.9375 145.582 19.3867 146.676 20.2852C147.77 21.1836 148.316 22.4531 148.316 24.0938C148.316 25.2578 148.062 26.2305 147.555 27.0117C147.055 27.7852 146.293 28.4023 145.27 28.8633L148.961 35.8359V36H145.188L141.988 29.7539ZM139.188 26.9062H142.023C142.906 26.9062 143.59 26.6836 144.074 26.2383C144.559 25.7852 144.801 25.1641 144.801 24.375C144.801 23.5703 144.57 22.9375 144.109 22.4766C143.656 22.0156 142.957 21.7852 142.012 21.7852H139.188V26.9062ZM163.258 21.7852H158.031V36H154.516V21.7852H149.359V18.9375H163.258V21.7852Z" fill="white"/>
<path d="M93.1885 54.7373C93.0889 56.1143 92.5791 57.1982 91.6592 57.9893C90.7451 58.7803 89.5381 59.1758 88.0381 59.1758C86.3975 59.1758 85.1055 58.625 84.1621 57.5234C83.2246 56.416 82.7559 54.8984 82.7559 52.9707V52.1885C82.7559 50.958 82.9727 49.874 83.4062 48.9365C83.8398 47.999 84.458 47.2812 85.2607 46.7832C86.0693 46.2793 87.0068 46.0273 88.0732 46.0273C89.5498 46.0273 90.7393 46.4229 91.6416 47.2139C92.5439 48.0049 93.0654 49.1152 93.2061 50.5449H90.5693C90.5049 49.7188 90.2734 49.1211 89.875 48.752C89.4824 48.377 88.8818 48.1895 88.0732 48.1895C87.1943 48.1895 86.5352 48.5059 86.0957 49.1387C85.6621 49.7656 85.4395 50.7412 85.4277 52.0654V53.0322C85.4277 54.415 85.6357 55.4258 86.0518 56.0645C86.4736 56.7031 87.1357 57.0225 88.0381 57.0225C88.8525 57.0225 89.459 56.8379 89.8574 56.4688C90.2617 56.0938 90.4932 55.5166 90.5518 54.7373H93.1885ZM97.5566 56.8818H103.155V59H94.9199V46.2031H97.5566V56.8818ZM112.076 56.3633H107.453L106.574 59H103.771L108.534 46.2031H110.978L115.768 59H112.964L112.076 56.3633ZM108.165 54.2275H111.364L109.756 49.4375L108.165 54.2275ZM123.599 55.6426C123.599 55.1445 123.423 54.7637 123.071 54.5C122.72 54.2305 122.087 53.9492 121.173 53.6562C120.259 53.3574 119.535 53.0645 119.002 52.7773C117.549 51.9922 116.822 50.9346 116.822 49.6045C116.822 48.9131 117.016 48.2979 117.402 47.7588C117.795 47.2139 118.354 46.7891 119.081 46.4844C119.813 46.1797 120.634 46.0273 121.542 46.0273C122.456 46.0273 123.271 46.1943 123.985 46.5283C124.7 46.8564 125.254 47.3223 125.646 47.9258C126.045 48.5293 126.244 49.2148 126.244 49.9824H123.607C123.607 49.3965 123.423 48.9424 123.054 48.6201C122.685 48.292 122.166 48.1279 121.498 48.1279C120.854 48.1279 120.353 48.2656 119.995 48.541C119.638 48.8105 119.459 49.168 119.459 49.6133C119.459 50.0293 119.667 50.3779 120.083 50.6592C120.505 50.9404 121.123 51.2041 121.938 51.4502C123.438 51.9014 124.53 52.4609 125.216 53.1289C125.901 53.7969 126.244 54.6289 126.244 55.625C126.244 56.7324 125.825 57.6025 124.987 58.2354C124.149 58.8623 123.021 59.1758 121.604 59.1758C120.619 59.1758 119.723 58.9971 118.914 58.6396C118.105 58.2764 117.487 57.7812 117.06 57.1543C116.638 56.5273 116.427 55.8008 116.427 54.9746H119.072C119.072 56.3867 119.916 57.0928 121.604 57.0928C122.23 57.0928 122.72 56.9668 123.071 56.7148C123.423 56.457 123.599 56.0996 123.599 55.6426ZM134.673 55.6426C134.673 55.1445 134.497 54.7637 134.146 54.5C133.794 54.2305 133.161 53.9492 132.247 53.6562C131.333 53.3574 130.609 53.0645 130.076 52.7773C128.623 51.9922 127.896 50.9346 127.896 49.6045C127.896 48.9131 128.09 48.2979 128.477 47.7588C128.869 47.2139 129.429 46.7891 130.155 46.4844C130.888 46.1797 131.708 46.0273 132.616 46.0273C133.53 46.0273 134.345 46.1943 135.06 46.5283C135.774 46.8564 136.328 47.3223 136.721 47.9258C137.119 48.5293 137.318 49.2148 137.318 49.9824H134.682C134.682 49.3965 134.497 48.9424 134.128 48.6201C133.759 48.292 133.24 48.1279 132.572 48.1279C131.928 48.1279 131.427 48.2656 131.069 48.541C130.712 48.8105 130.533 49.168 130.533 49.6133C130.533 50.0293 130.741 50.3779 131.157 50.6592C131.579 50.9404 132.197 51.2041 133.012 51.4502C134.512 51.9014 135.604 52.4609 136.29 53.1289C136.976 53.7969 137.318 54.6289 137.318 55.625C137.318 56.7324 136.899 57.6025 136.062 58.2354C135.224 58.8623 134.096 59.1758 132.678 59.1758C131.693 59.1758 130.797 58.9971 129.988 58.6396C129.18 58.2764 128.562 57.7812 128.134 57.1543C127.712 56.5273 127.501 55.8008 127.501 54.9746H130.146C130.146 56.3867 130.99 57.0928 132.678 57.0928C133.305 57.0928 133.794 56.9668 134.146 56.7148C134.497 56.457 134.673 56.0996 134.673 55.6426Z" fill="white"/>
<path d="M19.9362 9.76638C23.341 6.36159 28.0002 4.39039 32.8385 4.39039C37.6769 4.39039 42.3361 6.36159 45.7409 9.76638C46.1889 10.2144 46.7265 10.3936 47.2641 10.3936C47.8017 10.3936 48.3393 10.2144 48.7873 9.76638C49.6833 8.87038 49.6833 7.52638 48.7873 6.63039C44.6657 2.41919 38.8417 0 32.8385 0C26.7458 0 21.101 2.32959 16.8002 6.63039C15.9042 7.52638 15.9042 8.87038 16.8002 9.76638C17.6962 10.5728 19.0402 10.5728 19.9362 9.76638Z" fill="white"/>
<path d="M23.5199 13.3506C22.6239 14.2466 22.6239 15.5906 23.5199 16.4866C23.9679 16.9346 24.5055 17.1138 25.0431 17.1138C25.5807 17.1138 26.2079 16.9346 26.5663 16.4866C29.8815 13.1714 35.6159 13.1714 38.9311 16.4866C39.8271 17.3826 41.1711 17.3826 42.0671 16.4866C42.9631 15.5906 42.9631 14.2466 42.0671 13.3506C39.5583 10.8418 36.2431 9.4978 32.7487 9.4978C29.3439 9.4978 26.0287 10.8418 23.5199 13.3506Z" fill="white"/>
<path d="M39.0412 39.7288C38.3801 39.2754 37.4786 39.3888 36.9979 40.0122C36.5171 40.6356 36.6373 41.4857 37.2984 41.9391C39.0412 43.186 40.0628 45.0562 40.0628 47.1532C40.0628 50.7804 36.9378 53.6708 33.1516 53.6708C29.3655 53.6708 26.2404 50.7237 26.2404 47.1532C26.2404 45.0562 27.2621 43.186 29.0049 41.9391C29.666 41.4857 29.7862 40.6356 29.3054 40.0122C28.8246 39.3888 27.9232 39.2754 27.2621 39.7288C24.738 41.4857 23.2957 44.2061 23.2957 47.1532C23.2957 52.3106 27.7429 56.4478 33.1516 56.4478C38.6205 56.4478 43.0076 52.2539 43.0076 47.1532C43.0076 44.2061 41.5653 41.4857 39.0412 39.7288Z" fill="white"/>
<path d="M34.5937 48.0602V39.0489C34.5937 38.2555 33.9327 37.6321 33.0913 37.6321C32.2499 37.6321 31.5889 38.2555 31.5889 39.0489V48.0602C31.5889 48.8537 32.2499 49.4771 33.0913 49.4771C33.9327 49.4771 34.5937 48.797 34.5937 48.0602Z" fill="white"/>
<path d="M65.1989 41.4176L34.3766 17.4945C33.5702 16.8673 32.495 16.8673 31.6886 17.4945L0.866244 41.4176C-0.119354 42.1344 -0.298554 43.568 0.507844 44.464C1.22464 45.4496 2.65824 45.6288 3.55424 44.8224L8.93023 40.7008V67.76C8.93023 69.0144 9.91583 70 11.1702 70H22.639C23.8934 70 24.879 69.0144 24.879 67.76C24.879 66.5056 23.8934 65.52 22.639 65.52H13.3206V37.296L33.0326 21.9745L52.7445 37.296V50.5568C52.7445 51.8112 53.7301 52.7968 54.9845 52.7968C56.2389 52.7968 57.2245 51.8112 57.2245 50.5568V40.7008L62.6005 44.8224C62.9589 45.0912 63.4965 45.2704 63.9445 45.2704C64.5717 45.2704 65.2885 45.0016 65.6469 44.464C66.2741 43.4784 66.0949 42.1344 65.1989 41.4176Z" fill="white"/>
</svg>
